<svg xmlns="http://www.w3.org/2000/svg" viewBox="0 0 234.41 68.65"><defs><style>.cls-1{fill:#263369;}</style></defs><g id="레이어_2" data-name="레이어 2"><g id="Layer_1" data-name="Layer 1"><path class="cls-1" d="M41.13,56.65c-1,.06-1.26.45-1.35,1.11a14.69,14.69,0,0,0-.17,2.61v2.05c0,2-.25,4-1.62,5.18a4.94,4.94,0,0,1-3.45.89,5.35,5.35,0,0,1-3.32-1c-1-.84-1.56-2.23-1.56-4.43V58.66c0-1.77-.18-1.88-1.58-2V56h5.66v.66c-1.38.13-1.56.24-1.56,2v4.1c0,2.82,1,4.45,3,4.45,2.24,0,2.93-1.62,2.93-4.76v-2A14.86,14.86,0,0,0,38,57.83c-.11-.66-.26-1.1-1.53-1.18V56h4.7Z"/><path class="cls-1" d="M10.05,68.21C9.25,67.1,7.68,64.9,6.35,63c-.39-.57-.64-.68-.92-.64v3.38c0,1.62.17,1.73,1.62,1.86v.66H1.42v-.66C2.78,67.42,3,67.31,3,65.69V58.51c0-1.62-.17-1.73-1.58-1.86V56H6.91v.66c-1.34.13-1.48.24-1.48,1.86v3.2a3.46,3.46,0,0,0,1.42-1,27.25,27.25,0,0,0,2.64-3c.45-.58.4-.87-.47-1l-.35,0V56h4.9v.66a4.38,4.38,0,0,0-3.08,1.81C9.27,60,8.08,61.38,8.08,61.38s2.37,3.07,3.72,4.78a2.93,2.93,0,0,0,2,1.39v.66Z"/><path class="cls-1" d="M26.7,56.65c-1.19.13-1.55.39-2.2,1.56s-1.26,2.32-2.17,4.09A2.17,2.17,0,0,0,22,63.59v2c0,1.71.13,1.82,1.82,1.95v.64H17.71v-.64c1.6-.13,1.77-.24,1.77-1.95V63.53a2,2,0,0,0-.25-1c-.51-1-1.2-2.28-2.33-4.27-.69-1.24-1-1.43-2-1.58V56h5.36v.66c-1.22.17-1.2.4-.88,1.07.65,1.32,2,3.73,2,3.73s1.17-2.08,2.08-3.61c.42-.7.29-1-1.11-1.19V56H26.7Z"/><path class="cls-1" d="M234.37,56.65c-1.18.13-1.54.39-2.2,1.56s-1.26,2.32-2.16,4.09a2.1,2.1,0,0,0-.33,1.29v2c0,1.71.13,1.82,1.82,1.95v.64h-6.11v-.64c1.6-.13,1.76-.24,1.76-1.95V63.53a2,2,0,0,0-.24-1c-.5-1-1.2-2.28-2.33-4.27-.69-1.24-1-1.43-2.05-1.58V56h5.36v.66c-1.23.17-1.2.4-.88,1.07.65,1.32,2,3.73,2,3.73s1.17-2.08,2.08-3.61c.41-.7.28-1-1.11-1.19V56h4.36Z"/><path class="cls-1" d="M55.86,56.63c-1,.06-1.16.32-1.25,1.17a25.75,25.75,0,0,0-.17,3.14V68.4H53.29L45.47,59h-.06v4.21a25.69,25.69,0,0,0,.15,3.06c.1.83.42,1.19,1.8,1.24v.66h-4.6v-.66c1.05-.07,1.24-.38,1.32-1.18a23.7,23.7,0,0,0,.18-3.12V59.34c0-1.24,0-1.58-.37-2a1.49,1.49,0,0,0-1.34-.68V56H46l7.2,8.25h.06v-3.3a28.29,28.29,0,0,0-.15-3.1c-.1-.81-.47-1.13-1.86-1.21V56h4.58Z"/><path class="cls-1" d="M130.27,56.65c-1,.06-1.26.45-1.36,1.11a15.74,15.74,0,0,0-.17,2.61v2.05c0,2-.24,4-1.61,5.18a5,5,0,0,1-3.45.89,5.4,5.4,0,0,1-3.33-1c-1-.84-1.55-2.23-1.55-4.43V58.66c0-1.77-.19-1.88-1.58-2V56h5.66v.66c-1.37.13-1.56.24-1.56,2v4.1c0,2.82,1,4.45,3,4.45,2.24,0,2.93-1.62,2.93-4.76v-2a14.86,14.86,0,0,0-.19-2.61c-.12-.66-.26-1.1-1.54-1.18V56h4.71Z"/><path class="cls-1" d="M145,56.63c-1,.06-1.16.32-1.26,1.17a29,29,0,0,0-.16,3.14V68.4h-1.16L134.6,59h0v4.21a25.69,25.69,0,0,0,.15,3.06c.09.83.41,1.19,1.8,1.24v.66h-4.6v-.66c1-.07,1.24-.38,1.31-1.18a21.51,21.51,0,0,0,.19-3.12V59.34c0-1.24,0-1.58-.38-2a1.46,1.46,0,0,0-1.33-.68V56h3.48l7.2,8.25h0v-3.3a25.84,25.84,0,0,0-.15-3.1c-.09-.81-.46-1.13-1.86-1.21V56H145Z"/><path class="cls-1" d="M69.92,63c-.94.19-1,.27-1,1.52v1.51A10.15,10.15,0,0,0,69,67.81a19.09,19.09,0,0,1-4.29.68c-4.35,0-7.16-2.48-7.16-6.26C57.53,58,61,55.71,65,55.71a16.26,16.26,0,0,1,3.66.53c.06.64.15,1.63.3,3.1l-.71.15a3.45,3.45,0,0,0-3.63-3c-2.26,0-4.21,2-4.21,5.41,0,2.84,1.39,5.81,4.47,5.81a2.09,2.09,0,0,0,1-.22c.29-.17.44-.47.44-1.06V64.66c0-1.32-.1-1.47-2.08-1.64v-.65h5.65Z"/><path class="cls-1" d="M88.54,56.65c-1.47.13-1.58.24-1.58,1.84v7.24c0,1.58.15,1.69,1.58,1.82v.66H82.8v-.66c1.49-.13,1.64-.24,1.64-1.84V62.22H79.31v3.49c0,1.6.15,1.71,1.54,1.84v.66h-5.6v-.66c1.37-.13,1.54-.24,1.54-1.84V58.49c0-1.6-.17-1.71-1.62-1.84V56h5.64v.66c-1.35.13-1.5.24-1.5,1.84v2.76h5.13V58.49c0-1.6-.15-1.71-1.56-1.84V56h5.66Z"/><path class="cls-1" d="M100.61,65.09c-.13.85-.51,2.55-.66,3.12H90.37v-.66c1.6-.13,1.78-.24,1.78-1.84V58.49c0-1.63-.18-1.73-1.51-1.84V56h8.84c0,.34.12,1.66.19,2.82l-.69.1a3.71,3.71,0,0,0-.76-1.62c-.31-.34-.82-.47-1.87-.47h-.91c-.69,0-.77,0-.77.66v4h1.26c1.58,0,1.84-.09,2.09-1.41h.67v3.78H98c-.25-1.35-.49-1.43-2.09-1.43H94.67v3.27c0,.9.08,1.36.45,1.54a5,5,0,0,0,1.7.19,2.61,2.61,0,0,0,2.06-.6A6,6,0,0,0,99.93,65Z"/><path class="cls-1" d="M112.38,65.09c-.14.85-.51,2.55-.66,3.12h-9.59v-.66c1.6-.13,1.79-.24,1.79-1.84V58.49c0-1.63-.19-1.73-1.52-1.84V56h8.85c0,.34.11,1.66.18,2.82l-.69.1a3.7,3.7,0,0,0-.75-1.62c-.32-.34-.83-.47-1.88-.47h-.91c-.69,0-.76,0-.76.66v4h1.25c1.58,0,1.85-.09,2.09-1.41h.68v3.78h-.68c-.24-1.35-.49-1.43-2.09-1.43h-1.25v3.27c0,.9.07,1.36.44,1.54a5,5,0,0,0,1.7.19,2.66,2.66,0,0,0,2.07-.6,6.47,6.47,0,0,0,1-1.84Z"/><path class="cls-1" d="M146.76,68.21v-.66c1.41-.13,1.58-.26,1.58-1.84v-7.2c0-1.62-.17-1.73-1.58-1.86V56h5.66v.66c-1.41.13-1.56.24-1.56,1.86v7.2c0,1.58.15,1.71,1.56,1.84v.66Z"/><path class="cls-1" d="M166.54,56.67c-1.23.13-1.18.36-1.94,2.14-.62,1.47-2.33,5.73-3.79,9.6h-1.32c-1.28-3.44-3.05-8-3.82-9.92-.59-1.44-.88-1.71-2-1.82V56h5.6v.68c-1.37.21-1.37.42-1.09,1.22.55,1.5,2,5.32,2.7,7.08h.07c1-2.74,1.83-4.92,2.34-6.55.44-1.3.44-1.56-1.11-1.75V56h4.41Z"/><path class="cls-1" d="M177.78,65.09c-.13.85-.5,2.55-.66,3.12h-9.58v-.66c1.6-.13,1.79-.24,1.79-1.84V58.49c0-1.63-.19-1.73-1.52-1.84V56h8.85c0,.34.11,1.66.18,2.82l-.69.1a3.71,3.71,0,0,0-.76-1.62c-.31-.34-.82-.47-1.87-.47h-.9c-.7,0-.78,0-.78.66v4h1.26c1.58,0,1.84-.09,2.09-1.41h.67v3.78h-.67c-.25-1.35-.49-1.43-2.09-1.43h-1.26v3.27c0,.9.08,1.36.45,1.54a5,5,0,0,0,1.69.19,2.63,2.63,0,0,0,2.07-.6A6.24,6.24,0,0,0,177.11,65Z"/><path class="cls-1" d="M191.89,68.48a4.57,4.57,0,0,1-5.16-2c-.5-.76-1-1.71-1.58-2.7a1.26,1.26,0,0,0-1.24-.81h-.35v2.74c0,1.56.16,1.73,1.59,1.86v.66h-5.68v-.66c1.41-.13,1.62-.3,1.62-1.86V58.47c0-1.5-.17-1.69-1.54-1.82V56h5.28a5.76,5.76,0,0,1,3.36.7,2.85,2.85,0,0,1,1.26,2.5,3.25,3.25,0,0,1-2.35,3.06c.28.56,1,1.78,1.55,2.67,1.19,2.06,2.43,3,3.23,3.1ZM184,62.19a2.87,2.87,0,0,0,1.85-.48,2.74,2.74,0,0,0,.89-2.24c0-2-1.16-2.72-2.21-2.72a1.31,1.31,0,0,0-.85.18c-.14.12-.16.3-.16.7v4.56Z"/><path class="cls-1" d="M199.7,59.06c-.38-1.19-1.1-2.58-2.62-2.58a1.78,1.78,0,0,0-1.82,1.86c0,1,.68,1.62,2.33,2.47,2,.95,3.32,2,3.32,3.86,0,2.15-1.82,3.82-4.56,3.82a6.71,6.71,0,0,1-1.9-.26,7.84,7.84,0,0,1-1.13-.42,21.68,21.68,0,0,1-.57-3.17l.67-.23c.37,1.21,1.48,3.33,3.29,3.33a1.81,1.81,0,0,0,1.87-2c0-1.11-.82-1.81-2.23-2.56-1.91-1-3.28-2-3.28-3.8,0-2.06,1.65-3.68,4.31-3.68a8.32,8.32,0,0,1,2.61.49c.08.69.21,1.54.36,2.71Z"/><path class="cls-1" d="M202.83,68.21v-.66c1.41-.13,1.58-.26,1.58-1.84v-7.2c0-1.62-.17-1.73-1.58-1.86V56h5.66v.66c-1.41.13-1.56.24-1.56,1.86v7.2c0,1.58.15,1.71,1.56,1.84v.66Z"/><path class="cls-1" d="M221,59.21a4.22,4.22,0,0,0-.83-2c-.34-.34-.81-.43-1.92-.43h-.85v8.89c0,1.6.2,1.71,1.85,1.84v.66h-6.13v-.66c1.58-.13,1.77-.24,1.77-1.84V56.82h-.64c-1.56,0-1.9.19-2.16.51a4.42,4.42,0,0,0-.79,1.89h-.7c.08-1.36.19-2.74.23-3.7h.47c.28.42.52.47,1.07.47h7.56a1.24,1.24,0,0,0,1.07-.47h.46c0,.79.12,2.45.21,3.65Z"/><path class="cls-1" d="M31.66.87h7.39v25.6H31.66V20.78H22.59v-4.1h9.07v-5.3H24.28a19,19,0,0,1-7.79,11A22.27,22.27,0,0,1,4.1,26.52L0,23.63a20.36,20.36,0,0,0,12.36-4.79q4.82-4.23,4.81-11.79V6.51H2.9V2.35H25.05V6.64a2.93,2.93,0,0,1-.06.63h6.67Zm2.05,28.66a9.75,9.75,0,0,1,0,15.2,13,13,0,0,1-8.77,3.12,13.15,13.15,0,0,1-8.81-3.12,9.72,9.72,0,0,1,0-15.2,13.14,13.14,0,0,1,8.81-3.11A13,13,0,0,1,33.71,29.53ZM21.33,32.6a7.31,7.31,0,0,0-1.48,4.53,7.11,7.11,0,0,0,1.48,4.49,4.4,4.4,0,0,0,3.61,1.91,4.35,4.35,0,0,0,3.55-1.91A7.11,7.11,0,0,0,30,37.13a7.31,7.31,0,0,0-1.48-4.53,4.32,4.32,0,0,0-3.55-2A4.37,4.37,0,0,0,21.33,32.6Z"/><path class="cls-1" d="M73.25,30.3a29.13,29.13,0,0,0,4.37-.3A22.25,22.25,0,0,0,81,29.26V.76h7.38V46.05H81V32.87A16.79,16.79,0,0,1,77.32,34a21.37,21.37,0,0,1-4.34.43H50.44V30.3ZM71.88,10.23a9.55,9.55,0,0,1,3.34,7.22,9.59,9.59,0,0,1-3.31,7.27,12,12,0,0,1-16,0,9.56,9.56,0,0,1-3.34-7.27,9.12,9.12,0,0,1,.91-4,10.16,10.16,0,0,1,2.43-3.25h-5.2V6.07h9.47V.49h7.38V6.07h9.52v4.16ZM60.92,13a7.84,7.84,0,0,0-1.29,4.49,7.85,7.85,0,0,0,1.29,4.45,3.27,3.27,0,0,0,6,0,8,8,0,0,0,1.26-4.45A8,8,0,0,0,66.9,13a3.3,3.3,0,0,0-6,0Z"/><path class="cls-1" d="M119.21,46.05V28.22a8.87,8.87,0,0,1-2.35,1.12,11.19,11.19,0,0,1-3.45.47h-9.3a5.14,5.14,0,0,1-3.72-1.32A4.62,4.62,0,0,1,99,25V2.46h16.46V6.67H106.3V25.59h7.38A15.7,15.7,0,0,0,117,25.3a12.81,12.81,0,0,0,2.24-.69V.76h7V13.07h4.37V.76h7V46.05h-7V17.23h-4.37V46.05Z"/><path class="cls-1" d="M166.64,9.46a9.9,9.9,0,0,1,2.74,3.28,8.82,8.82,0,0,1,1,4.1A9.36,9.36,0,0,1,167.05,24a12.12,12.12,0,0,1-16,0,9.32,9.32,0,0,1-3.34-7.17,8.83,8.83,0,0,1,1-4.1,10,10,0,0,1,2.68-3.28H146V5.41h9.35V0h7.38V5.41h9.36V9.46Zm9.3,24.72h-25.1V30h32.48V46h-7.38ZM156,12.44a7.39,7.39,0,0,0-1.31,4.4A7.5,7.5,0,0,0,156,21.27a3.39,3.39,0,0,0,6.05,0,7.63,7.63,0,0,0,1.28-4.43,7.51,7.51,0,0,0-1.28-4.4,3.42,3.42,0,0,0-6.05,0ZM183.32,10h7.39v4.21h-7.39V27h-7.38V.71h7.38Z"/><path class="cls-1" d="M208.37,17.9V36.11H212V17.9h7.11V36.11h15.26v4.16H194V36.11h7.22V17.9Zm-11-15.53H230V19.43a37.73,37.73,0,0,1-.74,7.93,17.82,17.82,0,0,1-2,5.52h-6.51a13,13,0,0,0,1.72-5.63c.21-2.19.3-5,.3-8.37V6.58H197.38Z"/></g></g></svg>